<mxfile host="app.diagrams.net" agent="Mozilla/5.0 (X11; Linux x86_64; rv:133.0) Gecko/20100101 Firefox/133.0" scale="1" border="0" version="26.0.3">
  <diagram name="Page-1" id="lqh_Il7PUDTA4zO0Oj97">
    <mxGraphModel dx="714" dy="1240" grid="0" gridSize="10" guides="1" tooltips="1" connect="1" arrows="1" fold="1" page="0" pageScale="1" pageWidth="850" pageHeight="1100" math="0" shadow="0">
      <root>
        <mxCell id="0" />
        <mxCell id="1" parent="0" />
        <mxCell id="Nd5IJ-L-UjgMi4WhHVAJ-4" style="edgeStyle=none;curved=1;rounded=0;orthogonalLoop=1;jettySize=auto;html=1;entryX=1;entryY=0.5;entryDx=0;entryDy=0;fontSize=16;startSize=8;endSize=8;" parent="1" edge="1">
          <mxGeometry relative="1" as="geometry">
            <mxPoint x="34" y="88" as="sourcePoint" />
            <mxPoint x="34" y="88" as="targetPoint" />
          </mxGeometry>
        </mxCell>
        <mxCell id="Nd5IJ-L-UjgMi4WhHVAJ-5" value="h1" style="ellipse;whiteSpace=wrap;html=1;fontSize=16;fillColor=#f5f5f5;fontColor=#333333;strokeColor=#666666;" parent="1" vertex="1">
          <mxGeometry x="16" y="-140" width="60" height="60" as="geometry" />
        </mxCell>
        <mxCell id="Nd5IJ-L-UjgMi4WhHVAJ-8" value="i1" style="ellipse;whiteSpace=wrap;html=1;fontSize=16;fillColor=#f8cecc;strokeColor=#b85450;" parent="1" vertex="1">
          <mxGeometry x="16" y="-22" width="60" height="60" as="geometry" />
        </mxCell>
        <mxCell id="Nd5IJ-L-UjgMi4WhHVAJ-14" value="" style="edgeStyle=none;curved=1;rounded=0;orthogonalLoop=1;jettySize=auto;html=1;fontSize=16;startSize=8;endSize=8;endArrow=none;endFill=0;" parent="1" source="Nd5IJ-L-UjgMi4WhHVAJ-5" target="Nd5IJ-L-UjgMi4WhHVAJ-8" edge="1">
          <mxGeometry relative="1" as="geometry">
            <mxPoint x="247" y="-90" as="sourcePoint" />
            <mxPoint x="46" y="-41" as="targetPoint" />
          </mxGeometry>
        </mxCell>
        <mxCell id="AVQ2NDTrIzkf_kXeqUEB-1" value="o" style="ellipse;whiteSpace=wrap;html=1;fontSize=16;fillColor=#f5f5f5;fontColor=#333333;strokeColor=#666666;" parent="1" vertex="1">
          <mxGeometry x="73" y="-249" width="60" height="60" as="geometry" />
        </mxCell>
        <mxCell id="AVQ2NDTrIzkf_kXeqUEB-5" value="" style="edgeStyle=none;curved=1;rounded=0;orthogonalLoop=1;jettySize=auto;html=1;fontSize=16;startSize=8;endSize=8;endArrow=none;endFill=0;" parent="1" source="AVQ2NDTrIzkf_kXeqUEB-1" target="Nd5IJ-L-UjgMi4WhHVAJ-5" edge="1">
          <mxGeometry relative="1" as="geometry">
            <mxPoint x="97" y="-71" as="sourcePoint" />
            <mxPoint x="69" y="-28" as="targetPoint" />
          </mxGeometry>
        </mxCell>
        <mxCell id="AVQ2NDTrIzkf_kXeqUEB-7" value="i2" style="ellipse;whiteSpace=wrap;html=1;fontSize=16;fillColor=#f8cecc;strokeColor=#b85450;" parent="1" vertex="1">
          <mxGeometry x="139" y="-22" width="60" height="60" as="geometry" />
        </mxCell>
        <mxCell id="AVQ2NDTrIzkf_kXeqUEB-8" value="" style="edgeStyle=none;curved=1;rounded=0;orthogonalLoop=1;jettySize=auto;html=1;fontSize=16;startSize=8;endSize=8;endArrow=none;endFill=0;" parent="1" source="Nd5IJ-L-UjgMi4WhHVAJ-5" target="AVQ2NDTrIzkf_kXeqUEB-7" edge="1">
          <mxGeometry relative="1" as="geometry">
            <mxPoint x="98" y="-70" as="sourcePoint" />
            <mxPoint x="71" y="-27" as="targetPoint" />
          </mxGeometry>
        </mxCell>
        <mxCell id="huoUurtpqqZWKAT2L6YX-1" value="h2" style="ellipse;whiteSpace=wrap;html=1;fontSize=16;fillColor=#f5f5f5;fontColor=#333333;strokeColor=#666666;" vertex="1" parent="1">
          <mxGeometry x="139" y="-140" width="60" height="60" as="geometry" />
        </mxCell>
        <mxCell id="huoUurtpqqZWKAT2L6YX-2" value="" style="edgeStyle=none;curved=1;rounded=0;orthogonalLoop=1;jettySize=auto;html=1;fontSize=16;startSize=8;endSize=8;endArrow=none;endFill=0;" edge="1" parent="1" source="Nd5IJ-L-UjgMi4WhHVAJ-8" target="huoUurtpqqZWKAT2L6YX-1">
          <mxGeometry relative="1" as="geometry">
            <mxPoint x="78" y="-79" as="sourcePoint" />
            <mxPoint x="157" y="-3" as="targetPoint" />
          </mxGeometry>
        </mxCell>
        <mxCell id="huoUurtpqqZWKAT2L6YX-4" value="" style="edgeStyle=none;curved=1;rounded=0;orthogonalLoop=1;jettySize=auto;html=1;fontSize=16;startSize=8;endSize=8;endArrow=none;endFill=0;" edge="1" parent="1" source="AVQ2NDTrIzkf_kXeqUEB-1" target="huoUurtpqqZWKAT2L6YX-1">
          <mxGeometry relative="1" as="geometry">
            <mxPoint x="99" y="-182" as="sourcePoint" />
            <mxPoint x="70" y="-127" as="targetPoint" />
          </mxGeometry>
        </mxCell>
        <mxCell id="huoUurtpqqZWKAT2L6YX-7" value="1" style="text;html=1;align=center;verticalAlign=middle;whiteSpace=wrap;rounded=0;fontSize=16;" vertex="1" parent="1">
          <mxGeometry x="5" y="-66" width="60" height="30" as="geometry" />
        </mxCell>
        <mxCell id="huoUurtpqqZWKAT2L6YX-8" value="2" style="text;html=1;align=center;verticalAlign=middle;whiteSpace=wrap;rounded=0;fontSize=16;" vertex="1" parent="1">
          <mxGeometry x="61" y="-96" width="60" height="30" as="geometry" />
        </mxCell>
        <mxCell id="huoUurtpqqZWKAT2L6YX-10" value="" style="edgeStyle=none;curved=1;rounded=0;orthogonalLoop=1;jettySize=auto;html=1;fontSize=16;startSize=8;endSize=8;endArrow=none;endFill=0;" edge="1" parent="1" source="huoUurtpqqZWKAT2L6YX-1" target="AVQ2NDTrIzkf_kXeqUEB-7">
          <mxGeometry relative="1" as="geometry">
            <mxPoint x="78" y="-79" as="sourcePoint" />
            <mxPoint x="157" y="-3" as="targetPoint" />
          </mxGeometry>
        </mxCell>
        <mxCell id="huoUurtpqqZWKAT2L6YX-11" value="3" style="text;html=1;align=center;verticalAlign=middle;whiteSpace=wrap;rounded=0;fontSize=16;" vertex="1" parent="1">
          <mxGeometry x="97" y="-96" width="60" height="30" as="geometry" />
        </mxCell>
        <mxCell id="huoUurtpqqZWKAT2L6YX-12" value="4" style="text;html=1;align=center;verticalAlign=middle;whiteSpace=wrap;rounded=0;fontSize=16;" vertex="1" parent="1">
          <mxGeometry x="153" y="-66" width="60" height="30" as="geometry" />
        </mxCell>
        <mxCell id="huoUurtpqqZWKAT2L6YX-13" value="5" style="text;html=1;align=center;verticalAlign=middle;whiteSpace=wrap;rounded=0;fontSize=16;" vertex="1" parent="1">
          <mxGeometry x="32" y="-179" width="60" height="30" as="geometry" />
        </mxCell>
        <mxCell id="huoUurtpqqZWKAT2L6YX-14" value="6" style="text;html=1;align=center;verticalAlign=middle;whiteSpace=wrap;rounded=0;fontSize=16;" vertex="1" parent="1">
          <mxGeometry x="121" y="-179" width="60" height="30" as="geometry" />
        </mxCell>
        <mxCell id="huoUurtpqqZWKAT2L6YX-17" value="" style="endArrow=classic;html=1;rounded=0;fontSize=12;startSize=8;endSize=8;curved=1;" edge="1" parent="1">
          <mxGeometry width="50" height="50" relative="1" as="geometry">
            <mxPoint x="232" y="-141" as="sourcePoint" />
            <mxPoint x="314" y="-141" as="targetPoint" />
          </mxGeometry>
        </mxCell>
        <mxCell id="huoUurtpqqZWKAT2L6YX-18" style="edgeStyle=none;curved=1;rounded=0;orthogonalLoop=1;jettySize=auto;html=1;entryX=1;entryY=0.5;entryDx=0;entryDy=0;fontSize=16;startSize=8;endSize=8;" edge="1" parent="1">
          <mxGeometry relative="1" as="geometry">
            <mxPoint x="391" y="87" as="sourcePoint" />
            <mxPoint x="391" y="87" as="targetPoint" />
          </mxGeometry>
        </mxCell>
        <mxCell id="huoUurtpqqZWKAT2L6YX-19" value="D" style="ellipse;whiteSpace=wrap;html=1;fontSize=16;fillColor=#f5f5f5;fontColor=#333333;strokeColor=#666666;" vertex="1" parent="1">
          <mxGeometry x="350" y="-140" width="60" height="60" as="geometry" />
        </mxCell>
        <mxCell id="huoUurtpqqZWKAT2L6YX-20" value="a" style="ellipse;whiteSpace=wrap;html=1;fontSize=16;fillColor=#f8cecc;strokeColor=#b85450;" vertex="1" parent="1">
          <mxGeometry x="302" y="-24" width="60" height="60" as="geometry" />
        </mxCell>
        <mxCell id="huoUurtpqqZWKAT2L6YX-21" value="" style="edgeStyle=none;curved=1;rounded=0;orthogonalLoop=1;jettySize=auto;html=1;fontSize=16;startSize=8;endSize=8;endArrow=none;endFill=0;" edge="1" source="huoUurtpqqZWKAT2L6YX-19" target="huoUurtpqqZWKAT2L6YX-20" parent="1">
          <mxGeometry relative="1" as="geometry">
            <mxPoint x="604" y="-91" as="sourcePoint" />
            <mxPoint x="403" y="-42" as="targetPoint" />
          </mxGeometry>
        </mxCell>
        <mxCell id="huoUurtpqqZWKAT2L6YX-22" value="D" style="ellipse;whiteSpace=wrap;html=1;fontSize=16;fillColor=#f5f5f5;fontColor=#333333;strokeColor=#666666;" vertex="1" parent="1">
          <mxGeometry x="439" y="-249" width="60" height="60" as="geometry" />
        </mxCell>
        <mxCell id="huoUurtpqqZWKAT2L6YX-23" value="" style="edgeStyle=none;curved=1;rounded=0;orthogonalLoop=1;jettySize=auto;html=1;fontSize=16;startSize=8;endSize=8;endArrow=none;endFill=0;" edge="1" source="huoUurtpqqZWKAT2L6YX-22" target="huoUurtpqqZWKAT2L6YX-19" parent="1">
          <mxGeometry relative="1" as="geometry">
            <mxPoint x="454" y="-72" as="sourcePoint" />
            <mxPoint x="426" y="-29" as="targetPoint" />
          </mxGeometry>
        </mxCell>
        <mxCell id="huoUurtpqqZWKAT2L6YX-24" value="b" style="ellipse;whiteSpace=wrap;html=1;fontSize=16;fillColor=#f8cecc;strokeColor=#b85450;" vertex="1" parent="1">
          <mxGeometry x="389" y="-24" width="60" height="60" as="geometry" />
        </mxCell>
        <mxCell id="huoUurtpqqZWKAT2L6YX-25" value="" style="edgeStyle=none;curved=1;rounded=0;orthogonalLoop=1;jettySize=auto;html=1;fontSize=16;startSize=8;endSize=8;endArrow=none;endFill=0;" edge="1" source="huoUurtpqqZWKAT2L6YX-19" target="huoUurtpqqZWKAT2L6YX-24" parent="1">
          <mxGeometry relative="1" as="geometry">
            <mxPoint x="455" y="-71" as="sourcePoint" />
            <mxPoint x="428" y="-28" as="targetPoint" />
          </mxGeometry>
        </mxCell>
        <mxCell id="huoUurtpqqZWKAT2L6YX-26" value="D" style="ellipse;whiteSpace=wrap;html=1;fontSize=16;fillColor=#f5f5f5;fontColor=#333333;strokeColor=#666666;" vertex="1" parent="1">
          <mxGeometry x="524" y="-140" width="60" height="60" as="geometry" />
        </mxCell>
        <mxCell id="huoUurtpqqZWKAT2L6YX-28" value="" style="edgeStyle=none;curved=1;rounded=0;orthogonalLoop=1;jettySize=auto;html=1;fontSize=16;startSize=8;endSize=8;endArrow=none;endFill=0;" edge="1" source="huoUurtpqqZWKAT2L6YX-22" target="huoUurtpqqZWKAT2L6YX-26" parent="1">
          <mxGeometry relative="1" as="geometry">
            <mxPoint x="456" y="-183" as="sourcePoint" />
            <mxPoint x="427" y="-128" as="targetPoint" />
          </mxGeometry>
        </mxCell>
        <mxCell id="huoUurtpqqZWKAT2L6YX-29" value="1" style="text;html=1;align=center;verticalAlign=middle;whiteSpace=wrap;rounded=0;fontSize=16;" vertex="1" parent="1">
          <mxGeometry x="314" y="-76" width="60" height="30" as="geometry" />
        </mxCell>
        <mxCell id="huoUurtpqqZWKAT2L6YX-30" value="2" style="text;html=1;align=center;verticalAlign=middle;whiteSpace=wrap;rounded=0;fontSize=16;" vertex="1" parent="1">
          <mxGeometry x="383" y="-76" width="60" height="30" as="geometry" />
        </mxCell>
        <mxCell id="huoUurtpqqZWKAT2L6YX-32" value="3" style="text;html=1;align=center;verticalAlign=middle;whiteSpace=wrap;rounded=0;fontSize=16;" vertex="1" parent="1">
          <mxGeometry x="490" y="-76" width="60" height="30" as="geometry" />
        </mxCell>
        <mxCell id="huoUurtpqqZWKAT2L6YX-33" value="4" style="text;html=1;align=center;verticalAlign=middle;whiteSpace=wrap;rounded=0;fontSize=16;" vertex="1" parent="1">
          <mxGeometry x="558" y="-76" width="60" height="30" as="geometry" />
        </mxCell>
        <mxCell id="huoUurtpqqZWKAT2L6YX-34" value="5" style="text;html=1;align=center;verticalAlign=middle;whiteSpace=wrap;rounded=0;fontSize=16;" vertex="1" parent="1">
          <mxGeometry x="383" y="-187" width="60" height="30" as="geometry" />
        </mxCell>
        <mxCell id="huoUurtpqqZWKAT2L6YX-35" value="6" style="text;html=1;align=center;verticalAlign=middle;whiteSpace=wrap;rounded=0;fontSize=16;" vertex="1" parent="1">
          <mxGeometry x="492" y="-187" width="60" height="30" as="geometry" />
        </mxCell>
        <mxCell id="huoUurtpqqZWKAT2L6YX-37" value="a" style="ellipse;whiteSpace=wrap;html=1;fontSize=16;fillColor=#f8cecc;strokeColor=#b85450;" vertex="1" parent="1">
          <mxGeometry x="484" y="-24" width="60" height="60" as="geometry" />
        </mxCell>
        <mxCell id="huoUurtpqqZWKAT2L6YX-38" value="b" style="ellipse;whiteSpace=wrap;html=1;fontSize=16;fillColor=#f8cecc;strokeColor=#b85450;" vertex="1" parent="1">
          <mxGeometry x="572" y="-24" width="60" height="60" as="geometry" />
        </mxCell>
        <mxCell id="huoUurtpqqZWKAT2L6YX-39" value="" style="edgeStyle=none;curved=1;rounded=0;orthogonalLoop=1;jettySize=auto;html=1;fontSize=16;startSize=8;endSize=8;endArrow=none;endFill=0;" edge="1" parent="1" source="huoUurtpqqZWKAT2L6YX-26" target="huoUurtpqqZWKAT2L6YX-37">
          <mxGeometry relative="1" as="geometry">
            <mxPoint x="379" y="-72" as="sourcePoint" />
            <mxPoint x="353" y="-12" as="targetPoint" />
          </mxGeometry>
        </mxCell>
        <mxCell id="huoUurtpqqZWKAT2L6YX-40" value="" style="edgeStyle=none;curved=1;rounded=0;orthogonalLoop=1;jettySize=auto;html=1;fontSize=16;startSize=8;endSize=8;endArrow=none;endFill=0;" edge="1" parent="1" source="huoUurtpqqZWKAT2L6YX-26" target="huoUurtpqqZWKAT2L6YX-38">
          <mxGeometry relative="1" as="geometry">
            <mxPoint x="556" y="-71" as="sourcePoint" />
            <mxPoint x="538" y="-13" as="targetPoint" />
          </mxGeometry>
        </mxCell>
      </root>
    </mxGraphModel>
  </diagram>
</mxfile>
